<svg xmlns="http://www.w3.org/2000/svg" xmlns:xlink="http://www.w3.org/1999/xlink" version="1.1" x="0px" y="0px" viewBox="0 0 60 75" style="enable-background:new 0 0 60 60;" xml:space="preserve"><style type="text/css">
	.st0{fill:none;stroke:#000000;stroke-width:1.6;stroke-linecap:round;stroke-linejoin:round;stroke-miterlimit:10;}
</style><path class="st0" d="M35.5,17.5c1.3,3.4,2,8,2,13c0,10.5-3.4,19-7.5,19s-7.5-8.5-7.5-19s3.4-19,7.5-19c1.3,0,2.4,0.8,3.5,2.2   M13.9,35.5c-0.8,1.8-1,3.3-0.3,4.5c2.1,3.6,11.1,2.2,20.2-3s14.8-12.4,12.7-16s-11.1-2.2-20.2,3c-4.5,2.6-8.1,5.6-10.4,8.5   M26.2,37c9.1,5.2,18.1,6.6,20.2,3s-3.6-10.7-12.7-16s-18.1-6.6-20.2-3S17.2,31.7,26.2,37z M29.5,28.5c-1.1,0-2,0.9-2,2s0.9,2,2,2  s2-0.9,2-2S30.6,28.5,29.5,28.5z"/></svg>