<svg xmlns="http://www.w3.org/2000/svg" xmlns:xlink="http://www.w3.org/1999/xlink" version="1.1" x="0px" y="0px" viewBox="0 0 100 125" enable-background="new 0 0 100 100" xml:space="preserve"><g><path d="M40.959,18.342c-0.098,0-0.192,0.011-0.289,0.014c-0.024-0.001-0.045-0.014-0.07-0.014c-4.487,0-8.164,3.568-8.471,8.069   c-0.529-0.103-1.062-0.159-1.597-0.159c-4.82,0-8.741,4.001-8.741,8.92c0,2.249,0.807,4.346,2.233,5.955   c-0.547,0.118-1.073,0.294-1.577,0.512c-3.13,1.281-5.348,4.402-5.348,8.047c0,0.011,0.006,0.02,0.006,0.029   c0,0.047-0.006,0.092-0.006,0.139c0,4.266,2.95,7.841,6.878,8.714c-1.396,1.605-2.187,3.685-2.187,5.899   c0,4.917,3.921,8.918,8.741,8.918c0.571,0,1.135-0.056,1.688-0.166c-0.001,0.062-0.002,0.127-0.002,0.195   c0,4.919,3.921,8.92,8.741,8.92c4.82,0,8.742-4.001,8.742-8.92V27.846C49.701,22.783,45.616,18.342,40.959,18.342z M47.701,73.414   c0,3.815-3.024,6.92-6.742,6.92s-6.741-3.104-6.741-6.92c0-0.458,0.032-0.555,0.152-0.912c0.04-0.117,0.085-0.257,0.135-0.419   c2.591-1.487,4.348-4.317,4.348-7.562c0-0.553-0.448-1-1-1s-1,0.447-1,1c0,3.68-2.916,6.674-6.5,6.674   c-3.584,0-6.5-2.994-6.5-6.674c0-0.087-0.029-0.165-0.05-0.246c0.062-2.333,1.24-4.451,3.193-5.691   c0.389-0.246,0.559-0.728,0.411-1.164s-0.572-0.727-1.033-0.676c-0.176,0.015-0.354,0.027-0.534,0.027   c-3.717,0-6.741-3.104-6.741-6.918c0-2.844,1.682-5.291,4.077-6.354c0.75-0.312,1.566-0.486,2.423-0.486   c3.584,0,6.5,2.993,6.5,6.672c0,0.553,0.448,1,1,1s1-0.447,1-1c0-4.238-2.999-7.771-6.945-8.52   c-0.021-0.015-0.034-0.035-0.056-0.049c-2.071-1.263-3.308-3.485-3.308-5.945c0-3.815,3.024-6.92,6.741-6.92   c0.571,0,1.14,0.104,1.702,0.258c0.697,4.07,4.179,7.178,8.366,7.178c0.552,0,1-0.447,1-1s-0.448-1-1-1   c-3.258,0-5.956-2.475-6.422-5.688c0.041-0.131,0.065-0.268,0.056-0.401c-0.007-0.111-0.016-0.224-0.016-0.337   c0-3.815,3.024-6.92,6.741-6.92c3.591,0,6.742,3.507,6.742,7.504V73.414z"/><path d="M84.314,49.686c0-3.645-2.218-6.766-5.348-8.047c-0.504-0.218-1.03-0.394-1.577-0.512c1.427-1.609,2.233-3.706,2.233-5.955   c0-4.919-3.921-8.92-8.741-8.92c-0.578,0-1.154,0.06-1.723,0.179c-0.412-4.53-4.158-8.089-8.704-8.089   c-4.657,0-8.742,4.441-8.742,9.504v45.568c0,4.919,3.921,8.92,8.742,8.92c4.82,0,8.741-4.001,8.741-8.92   c0-0.068-0.001-0.134-0.002-0.195c0.553,0.11,1.117,0.166,1.688,0.166c4.82,0,8.741-4.001,8.741-8.918   c0-2.215-0.79-4.294-2.187-5.899c3.928-0.873,6.878-4.448,6.878-8.714c0-0.047-0.005-0.092-0.006-0.139   C84.308,49.705,84.314,49.696,84.314,49.686z M60.455,73.377c-1.108,0-2.01-0.901-2.01-2.009c0-1.108,0.901-2.01,2.01-2.01   c1.108,0,2.009,0.901,2.009,2.01C62.464,72.476,61.562,73.377,60.455,73.377z M70.921,65.924c-1.108,0-2.01-0.901-2.01-2.009   c0-1.108,0.901-2.01,2.01-2.01c1.108,0,2.009,0.901,2.009,2.01C72.931,65.022,72.029,65.924,70.921,65.924z M75.573,56.771   c-0.18,0-0.357-0.013-0.534-0.027c-0.459-0.045-0.885,0.239-1.033,0.676s0.022,0.918,0.411,1.164   c2.007,1.274,3.205,3.474,3.205,5.883c0,3.45-2.477,6.311-5.701,6.827v-3.512c1.726-0.447,3.009-2.004,3.009-3.867   c0-2.211-1.798-4.01-4.009-4.01s-4.01,1.799-4.01,4.01c0,1.863,1.284,3.42,3.01,3.867v3.524c-0.572-0.084-1.132-0.234-1.67-0.467   c-0.357-0.153-0.772-0.088-1.062,0.171c-0.291,0.259-0.405,0.663-0.292,1.035c0.055,0.183,0.104,0.328,0.146,0.456   c0.12,0.357,0.152,0.454,0.152,0.912c0,3.466-2.498,6.337-5.741,6.835v-5.014c1.726-0.447,3.01-2.003,3.01-3.867   c0-2.211-1.798-4.01-4.009-4.01s-4.01,1.799-4.01,4.01c0,1.863,1.284,3.42,3.009,3.867v5.014c-3.244-0.498-5.742-3.369-5.742-6.835   V52.85h2.874c0.447,1.726,2.005,3.01,3.869,3.01c2.211,0,4.009-1.798,4.009-4.009s-1.798-4.01-4.009-4.01   c-1.863,0-3.42,1.283-3.868,3.009h-2.875V37.24h6.742h1.314h4.271c0.448,1.726,2.004,3.009,3.868,3.009   c2.211,0,4.009-1.798,4.009-4.009s-1.798-4.01-4.009-4.01c-1.864,0-3.421,1.284-3.868,3.01h-3.271v-3.982   c1.726-0.447,3.01-2.003,3.01-3.867c0-2.211-1.798-4.01-4.009-4.01s-4.01,1.799-4.01,4.01c0,1.863,1.284,3.42,3.009,3.867v3.982   h-0.314h-6.742v-7.395c0-3.997,3.15-7.504,6.742-7.504c3.717,0,6.741,3.104,6.741,6.92c0,0.113-0.009,0.226-0.023,0.433   c-0.022,0.34,0.13,0.668,0.404,0.87c0.274,0.202,0.631,0.252,0.95,0.13c0.77-0.294,1.562-0.442,2.354-0.442   c3.717,0,6.741,3.104,6.741,6.92c0,2.46-1.236,4.683-3.308,5.945c-0.021,0.014-0.035,0.034-0.056,0.049   c-3.946,0.748-6.945,4.281-6.945,8.52c0,0.553,0.448,1,1,1s1-0.447,1-1c0-3.679,2.916-6.672,6.5-6.672   c0.857,0,1.673,0.175,2.423,0.485c2.395,1.063,4.077,3.511,4.077,6.354C82.314,53.668,79.29,56.771,75.573,56.771z M58.445,51.851   c0-1.108,0.901-2.01,2.01-2.01c1.108,0,2.009,0.901,2.009,2.01c0,1.107-0.901,2.009-2.009,2.009   C59.346,53.859,58.445,52.958,58.445,51.851z M61.769,29.399c-1.108,0-2.01-0.901-2.01-2.009c0-1.108,0.901-2.01,2.01-2.01   c1.108,0,2.009,0.901,2.009,2.01C63.778,28.498,62.876,29.399,61.769,29.399z M67.898,36.24c0-1.108,0.901-2.01,2.01-2.01   c1.108,0,2.009,0.901,2.009,2.01c0,1.107-0.901,2.009-2.009,2.009C68.799,38.249,67.898,37.348,67.898,36.24z"/></g></svg>