<svg xmlns="http://www.w3.org/2000/svg" xmlns:xlink="http://www.w3.org/1999/xlink" version="1.1" x="0px" y="0px" viewBox="0 0 100 125" enable-background="new 0 0 100 100" xml:space="preserve"><path d="M59.671,58.767H41.345c-1.174,0-2.124-0.95-2.124-2.121l0,0c0-1.174,0.95-2.122,2.124-2.122h18.326  c1.171,0,2.123,0.948,2.123,2.122l0,0C61.794,57.816,60.842,58.767,59.671,58.767z"/><path d="M68.273,95c-9.719,0-17.627-7.907-17.627-17.626s7.908-17.627,17.627-17.627s17.626,7.908,17.626,17.627  S77.992,95,68.273,95z M68.273,63.995c-7.379,0-13.379,6-13.379,13.379c0,7.376,6,13.379,13.379,13.379  c7.378,0,13.381-6.003,13.381-13.379C81.654,69.995,75.651,63.995,68.273,63.995z"/><path d="M59.671,34.995H41.345c-1.174,0-2.124-0.952-2.124-2.124l0,0c0-1.171,0.95-2.124,2.124-2.124h18.326  c1.171,0,2.123,0.952,2.123,2.124l0,0C61.794,34.043,60.842,34.995,59.671,34.995z"/><path d="M59.671,46.881H41.345c-1.174,0-2.124-0.95-2.124-2.122l0,0c0-1.173,0.95-2.124,2.124-2.124h18.326  c1.171,0,2.123,0.95,2.123,2.124l0,0C61.794,45.931,60.842,46.881,59.671,46.881z"/><path d="M57.277,10.642h-6.08C50.271,7.391,47.28,5,43.735,5s-6.537,2.391-7.463,5.642H30.19c-1.172,0-2.124,0.953-2.124,2.126  v8.603c0,1.171,0.952,2.124,2.124,2.124h27.087c1.172,0,2.124-0.953,2.124-2.124v-8.603C59.401,11.595,58.449,10.642,57.277,10.642z   M55.154,19.247H32.313v-4.358h5.779l0,0c1.171,0,2.121-0.952,2.121-2.121c0-1.943,1.58-3.521,3.521-3.521  c1.94,0,3.521,1.578,3.521,3.521c0,1.169,0.945,2.117,2.114,2.121l0,0h5.784V19.247z"/><path d="M52.646,66.409H41.345c-1.174,0-2.124,0.95-2.124,2.121c0,1.174,0.95,2.124,2.124,2.124h9.05  C50.967,69.137,51.727,67.713,52.646,66.409z"/><path d="M68.273,21.248v37.022c1.765,0,3.473,0.246,5.094,0.693V21.248c0-4.216-3.428-7.643-7.641-7.643h-8.449v5.094h8.449  C67.131,18.699,68.273,19.844,68.273,21.248z"/><path d="M49.781,82.172h-28.04c-1.404,0-2.547-1.145-2.547-2.55V21.248c0-1.404,1.143-2.549,2.547-2.549h8.449v-5.094h-8.449  c-4.214,0-7.641,3.427-7.641,7.643v58.374c0,4.214,3.427,7.644,7.641,7.644h30.194C50.986,85.7,50.253,83.987,49.781,82.172z"/><path d="M76.024,70.094c-0.936-0.702-2.266-0.515-2.973,0.419l-6.715,8.912l-2.843-3.771c-0.704-0.934-2.037-1.121-2.973-0.416  c-0.936,0.704-1.123,2.037-0.418,2.975l4.538,6.018l0.005-0.005c0.39,0.515,0.998,0.852,1.69,0.852c0.693,0,1.302-0.337,1.688-0.852  l0.008,0.005l8.41-11.164C77.147,72.133,76.96,70.801,76.024,70.094z"/><path d="M36.659,62.494c-0.645-0.486-1.561-0.356-2.046,0.288l-4.628,6.141l-1.957-2.598c-0.486-0.645-1.402-0.772-2.05-0.286  c-0.645,0.485-0.771,1.402-0.286,2.047l3.124,4.146l0.005-0.002c0.268,0.352,0.688,0.584,1.164,0.584  c0.477,0,0.897-0.232,1.164-0.584l0.003,0.002l5.796-7.688C37.434,63.898,37.304,62.979,36.659,62.494z"/><path d="M36.659,50.608c-0.645-0.486-1.561-0.356-2.046,0.289l-4.628,6.137l-1.957-2.597c-0.486-0.645-1.402-0.772-2.05-0.286  c-0.645,0.488-0.771,1.401-0.286,2.046l3.124,4.146h0.005c0.268,0.352,0.688,0.582,1.164,0.582c0.477,0,0.897-0.23,1.164-0.584  l0.003,0.002l5.796-7.687C37.434,52.013,37.304,51.095,36.659,50.608z"/><path d="M36.659,38.723c-0.645-0.486-1.561-0.358-2.046,0.289l-4.628,6.137l-1.957-2.597c-0.486-0.645-1.402-0.774-2.05-0.289  c-0.645,0.488-0.771,1.404-0.286,2.049l3.124,4.146l0.005-0.002c0.268,0.354,0.688,0.584,1.164,0.584  c0.477,0,0.897-0.231,1.164-0.587l0.003,0.005l5.796-7.689C37.434,40.125,37.304,39.209,36.659,38.723z"/><path d="M36.659,26.835c-0.645-0.486-1.561-0.358-2.046,0.289l-4.628,6.14l-1.957-2.598c-0.486-0.645-1.402-0.774-2.05-0.289  c-0.645,0.486-0.771,1.405-0.286,2.049l3.124,4.146l0.005-0.005c0.268,0.356,0.688,0.587,1.164,0.587  c0.477,0,0.897-0.231,1.164-0.587l0.003,0.005l5.796-7.691C37.434,28.237,37.304,27.323,36.659,26.835z"/></svg>