<svg xmlns="http://www.w3.org/2000/svg" xmlns:xlink="http://www.w3.org/1999/xlink" version="1.1" x="0px" y="0px" viewBox="0 0 68 85" style="enable-background:new 0 0 68 68;" xml:space="preserve"><style type="text/css">
	.st0{fill:#010101;}
</style><g><g><g><path class="st0" d="M67,34c0-2.7-2.1-4.9-4.7-5.2c-0.7-4-2.3-7.8-4.7-11.2c1.7-2,1.6-5.1-0.3-7c-1.9-1.9-4.9-2.1-7-0.3     C47,8.1,43.1,6.5,39.2,5.8C38.9,3.1,36.7,1,34,1c-2.7,0-4.9,2.1-5.2,4.8c-4,0.7-7.8,2.3-11.1,4.6c-2.2-1.8-5.2-1.6-7,0.3     c-1.9,1.9-2,5-0.3,7C8.1,21,6.5,24.8,5.7,28.8C3.1,29.1,1,31.3,1,34c0,2.7,2.1,4.9,4.7,5.2c0.7,4,2.3,7.9,4.6,11.2     c-1.7,2-1.6,5.1,0.3,7c1.8,1.8,4.8,2.1,7,0.3c3.4,2.3,7.2,3.9,11.2,4.7C29.1,65,31.3,67,34,67c2.7,0,4.9-2.1,5.1-4.7     c4-0.7,7.9-2.3,11.2-4.7c2.2,1.8,5.1,1.5,7-0.3c1.9-1.9,2-4.9,0.3-7c2.3-3.4,3.9-7.2,4.6-11.2C64.9,38.9,67,36.7,67,34z M50,50     c-1.7,1.7-1.9,4.2-0.9,6.1c-3,2.1-6.5,3.5-10.1,4.2c-0.6-2.1-2.6-3.7-5-3.7c-2.4,0-4.3,1.6-5,3.7c-3.6-0.7-7.1-2.1-10.1-4.2     c1.1-2,0.8-4.5-0.9-6.1c-1.5-1.5-4-2-6.1-0.9c-2.1-3-3.5-6.5-4.2-10.1c2.1-0.7,3.7-2.6,3.7-4.9c0-2.3-1.5-4.3-3.7-4.9     C8.4,25.4,9.9,22,12,18.9c2.1,1.1,4.5,0.6,6.1-0.9c1.6-1.6,1.9-4.1,0.9-6c3-2.1,6.5-3.5,10.1-4.2c0.7,2.1,2.6,3.6,4.9,3.6     c2.3,0,4.3-1.5,4.9-3.6C42.6,8.5,46,9.9,49.1,12c-1,2-0.7,4.4,0.9,6c1.5,1.5,3.9,2,6.1,0.9c2.1,3,3.5,6.5,4.2,10.1     c-2.1,0.7-3.7,2.6-3.7,4.9c0,2.3,1.6,4.3,3.7,4.9c-0.7,3.6-2.1,7.1-4.2,10.1C53.9,47.9,51.5,48.4,50,50z M65,34     c0,1.8-1.4,3.2-3.2,3.2c-1.8,0-3.2-1.4-3.2-3.2c0-1.8,1.4-3.2,3.2-3.2C63.6,30.8,65,32.2,65,34z M55.9,12.1     c1.2,1.2,1.2,3.3,0,4.5c-1.2,1.2-3.3,1.2-4.5,0c-1.2-1.2-1.2-3.3,0-4.5C52.6,10.8,54.7,10.8,55.9,12.1z M34,3     c1.8,0,3.2,1.4,3.2,3.2c0,1.8-1.4,3.2-3.2,3.2S30.8,8,30.8,6.2C30.8,4.4,32.2,3,34,3z M12.1,12.1c1.3-1.3,3.3-1.3,4.5,0     c1.2,1.2,1.2,3.3,0,4.5c-1.2,1.2-3.3,1.2-4.5,0C10.8,15.4,10.8,13.3,12.1,12.1z M3,34c0-1.8,1.4-3.2,3.2-3.2     c1.8,0,3.2,1.4,3.2,3.2c0,1.8-1.4,3.2-3.2,3.2C4.4,37.2,3,35.8,3,34z M12.1,55.9c-1.2-1.2-1.2-3.3,0-4.5c1.3-1.3,3.3-1.3,4.5,0     c1.2,1.2,1.2,3.3,0,4.5C15.4,57.1,13.3,57.1,12.1,55.9z M34,65c-1.8,0-3.2-1.4-3.2-3.2c0-1.8,1.4-3.2,3.2-3.2s3.2,1.4,3.2,3.2     C37.2,63.6,35.8,65,34,65z M55.9,55.9c-1.2,1.2-3.3,1.2-4.5,0c-1.2-1.2-1.2-3.3,0-4.5c1.3-1.3,3.3-1.3,4.5,0     C57.2,52.6,57.2,54.7,55.9,55.9z"/></g></g><g><g><path class="st0" d="M49.1,30.2H49c1.7-1.1,2.9-3,2.9-5.2c0-3.4-2.8-6.2-6.2-6.2c-3.4,0-6.2,2.8-6.2,6.2c0,2.2,1.2,4.1,2.9,5.2     h-0.3c-0.8,0-1.6,0.1-2.3,0.4c-0.9-2.3-3.1-4-5.8-4c-2.7,0-4.9,1.7-5.8,4c-0.8-0.3-1.6-0.5-2.5-0.5h-0.1c1.7-1.1,2.9-3,2.9-5.2     c0-3.4-2.8-6.2-6.2-6.2s-6.2,2.8-6.2,6.2c0,2.2,1.2,4.1,2.9,5.2h-0.3c-3.9,0-7,3.2-7,7v3.1c0,0.6,0.4,1,1,1h11.7     c-0.7,1.1-1.1,2.4-1.1,3.7v3.1c0,0.6,0.4,1,1,1h19c0.6,0,1-0.4,1-1v-3.1c0-1.4-0.4-2.6-1.1-3.7h11.7c0.6,0,1-0.4,1-1v-3.1     C56.2,33.4,53,30.2,49.1,30.2z M45.7,20.8c2.3,0,4.2,1.9,4.2,4.2c0,2.3-1.9,4.2-4.2,4.2c-2.3,0-4.2-1.9-4.2-4.2     C41.6,22.7,43.4,20.8,45.7,20.8z M22.4,20.8c2.3,0,4.2,1.9,4.2,4.2c0,2.3-1.9,4.2-4.2,4.2c-2.3,0-4.2-1.9-4.2-4.2     C18.2,22.7,20.1,20.8,22.4,20.8z M34.1,28.6c2.3,0,4.2,1.9,4.2,4.2S36.4,37,34.1,37c-2.3,0-4.2-1.9-4.2-4.2S31.8,28.6,34.1,28.6z      M13.8,37.3c0-2.8,2.3-5,5-5h7c0.7,0,1.4,0.2,2.1,0.5c0,0.1,0,0.1,0,0.1c0,2.2,1.2,4.1,2.9,5.2h-0.3c-1.5,0-2.9,0.5-4.1,1.3H13.8     V37.3z M42.5,47.2h-17v-2.1c0-2.8,2.3-5,5-5h7c2.8,0,5,2.3,5,5V47.2z M54.2,39.4H41.6c-1.2-0.8-2.6-1.3-4.1-1.3h-0.1     c1.7-1.1,2.9-3,2.9-5.2c0-0.1,0-0.1,0-0.2c0.6-0.3,1.3-0.4,1.9-0.4h7c2.8,0,5,2.3,5,5V39.4z"/></g></g></g></svg>